<?xml version="1.0" encoding="utf-8"?>
<!-- Generator: Adobe Illustrator 21.1.0, SVG Export Plug-In . SVG Version: 6.00 Build 0)  -->
<svg version="1.1" id="Capa_1" xmlns="http://www.w3.org/2000/svg" xmlns:xlink="http://www.w3.org/1999/xlink" x="0px" y="0px"
	 viewBox="0 0 1305 173" style="enable-background:new 0 0 1305 173;" xml:space="preserve">
<style type="text/css">
	.st0{fill:url(#SVGID_1_);}
	.st1{fill:#FFFFFF;}
	.st2{fill:url(#SVGID_2_);}
	.st3{fill:url(#SVGID_3_);}
	.st4{fill:url(#SVGID_4_);}
	.st5{fill:url(#SVGID_5_);}
	.st6{fill:url(#SVGID_6_);}
	.st7{fill:url(#SVGID_7_);}
	.st8{fill:url(#SVGID_8_);}
	.st9{fill:url(#SVGID_9_);}
	.st10{fill:url(#SVGID_10_);}
	.st11{fill:url(#SVGID_11_);}
	.st12{fill:#77777A;}
</style>
<g id="Guías">
</g>
<g id="Marcas_de_recorte">
	<g>
		<g>
			
				<linearGradient id="SVGID_1_" gradientUnits="userSpaceOnUse" x1="21.2286" y1="157.8163" x2="149.9345" y2="15.7036" gradientTransform="matrix(1 0 0 -1 0 168.11)">
				<stop  offset="0" style="stop-color:#F08649"/>
				<stop  offset="0.4976" style="stop-color:#E83A80"/>
				<stop  offset="1" style="stop-color:#CF165D"/>
			</linearGradient>
			<path class="st0" d="M130.1,152H45.7c-14.3,0-25.9-11.6-25.9-25.9V41.7c0-14.3,11.6-25.9,25.9-25.9h84.4
				c14.3,0,25.9,11.6,25.9,25.9v84.4C156,140.4,144.4,152,130.1,152z"/>
		</g>
		<path class="st1" d="M143.1,78.7c0.5-0.5,0.4-1.3-0.2-1.6c-2.1-1-3.5-3.2-3.5-5.6s1.4-4.6,3.4-5.6c0.6-0.3,0.7-1.1,0.2-1.6
			l-22.4-22.4c-0.4-0.4-1.2-0.4-1.5,0.1c-1.2,1.8-3.3,3-5.6,3s-4.3-1.2-5.6-2.9c-0.3-0.5-1.1-0.6-1.5-0.1L88.1,60.3l0,0L62.8,85.6
			c-0.4,0.4-0.4,1,0,1.4l2.5,2.5c0.4,0.4,1,0.4,1.4,0l21.4-21.4l0,0L116.9,97l0,0l-7.1,7.1l0,0L95.3,89.6c-0.4-0.4-1-0.4-1.4,0
			l-2.5,2.5c-0.4,0.4-0.4,1,0,1.4l14.5,14.5l0,0l-7.1,7.1l0,0l-14.6-14.6c-0.4-0.4-1-0.4-1.4,0l-2.5,2.5c-0.4,0.4-0.4,1,0,1.4
			L94.9,119l0,0l-7,7l0,0L56.8,94.9L44.1,82.2c-8-8-8.1-21-0.1-29s21.1-8,29.1,0l6.4,6.3c0.4,0.4,1,0.4,1.4,0l2.5-2.5
			c0.4-0.4,0.4-1,0-1.4L77,49.3c-10.2-10.2-26.7-10.2-36.9,0s-10.2,26.7,0,36.9l12.7,12.7l34.3,34.3c0.4,0.4,1,0.4,1.4,0l36.1-36.1
			l0,0L143.1,78.7z M92,64.2l15.7-15.7l0,0c3.6,2.2,8.2,2.2,11.8,0l0,0l17,17l0,0c-2.2,3.6-2.2,8.2,0,11.8l0,0l-15.7,15.8l0,0
			L92,64.2L92,64.2z"/>
	</g>
	<g>
		<g>
			
				<linearGradient id="SVGID_2_" gradientUnits="userSpaceOnUse" x1="587.9312" y1="75.0475" x2="1074.1351" y2="23.7093" gradientTransform="matrix(1 0 0 -1 0 168.11)">
				<stop  offset="0" style="stop-color:#F08649"/>
				<stop  offset="0.4976" style="stop-color:#E83A80"/>
				<stop  offset="1" style="stop-color:#CF165D"/>
			</linearGradient>
			<path class="st2" d="M610.3,65.3c2.8,0.1,5.6,0.4,8.3,1.1c2.6,0.6,5,1.8,6.9,3.4c2,1.6,3.5,3.8,4.7,6.5c1.2,2.8,1.8,6.2,1.8,10.4
				v34.7c0,1-0.5,1.5-1.5,1.5h-12c-0.7,0-1.1-0.4-1.3-1.1l-0.9-4.8c-0.8,0.8-1.8,1.7-3,2.5c-1.2,0.9-2.4,1.7-3.7,2.4
				s-2.8,1.3-4.4,1.8c-1.6,0.4-3.2,0.7-4.9,0.7h-0.6c-2.7,0-5-0.4-7-1.3c-2-0.9-3.6-2.1-4.9-3.5c-1.3-1.5-2.3-3.1-3-5s-1-3.9-1-6
				v-1.5c0-5.6,1.9-9.9,5.6-12.9c3.7-3,9.8-4.8,18.1-5.4l7.9-0.6v-1.1c0-3.5-0.7-5.9-2.2-7.1s-3.7-1.8-6.9-1.8h-0.2
				c-2.4,0-4.9,0.4-7.7,1.1c-2.7,0.7-5.6,1.5-8.7,2.3c-1,0.3-1.5,0-1.5-1v-9.9c0-1.1,0.4-1.8,1.2-2c2.5-0.8,5.6-1.6,9.1-2.3
				C602.6,65.5,606.5,65.2,610.3,65.3z M610,98.3c-3.3,0.1-5.6,0.7-7.1,1.9s-2.2,2.8-2.2,4.9v0.3c0,1.9,0.6,3.4,1.7,4.5
				c1.2,1.1,2.7,1.7,4.6,1.7h0.6c2.5,0,5.2-1.2,7.9-3.7v-9.7L610,98.3z"/>
			
				<linearGradient id="SVGID_3_" gradientUnits="userSpaceOnUse" x1="589.2513" y1="87.5493" x2="1075.4551" y2="36.211" gradientTransform="matrix(1 0 0 -1 0 168.11)">
				<stop  offset="0" style="stop-color:#F08649"/>
				<stop  offset="0.4976" style="stop-color:#E83A80"/>
				<stop  offset="1" style="stop-color:#CF165D"/>
			</linearGradient>
			<path class="st3" d="M659.7,51.9c0.6-0.1,1.1-0.1,1.5,0.2c0.4,0.3,0.6,0.7,0.6,1.3v13.5h12.4c1,0,1.5,0.5,1.5,1.5v9.8
				c0,1-0.5,1.5-1.5,1.5h-12.4v25.5c0,2,0.4,3.5,1.2,4.4s2,1.3,3.5,1.3h0.6c0.6,0,1.4-0.1,2.5-0.4c1-0.3,2.6-0.7,4.6-1.3
				c0.4-0.1,0.7-0.1,1,0.2s0.4,0.6,0.4,1v9.4c0,0.7-0.3,1.3-1,1.6c-1.9,0.9-3.9,1.6-5.9,2.1s-3.9,0.8-5.6,0.8H662
				c-5.4,0-9.5-1.4-12.5-4.2c-2.9-2.8-4.4-6.7-4.4-11.6V79.9H639c-1,0-1.5-0.5-1.5-1.5V70c0-0.4,0.1-0.8,0.4-1
				c0.3-0.2,0.7-0.4,1.1-0.6l5.9-1.6V57c0-1.3,0.6-2.1,1.8-2.3L659.7,51.9z"/>
			
				<linearGradient id="SVGID_4_" gradientUnits="userSpaceOnUse" x1="589.0741" y1="85.8707" x2="1075.278" y2="34.5324" gradientTransform="matrix(1 0 0 -1 0 168.11)">
				<stop  offset="0" style="stop-color:#F08649"/>
				<stop  offset="0.4976" style="stop-color:#E83A80"/>
				<stop  offset="1" style="stop-color:#CF165D"/>
			</linearGradient>
			<path class="st4" d="M729.2,66.6c1,0,1.5,0.5,1.5,1.5v53c0,1-0.5,1.5-1.5,1.5h-12c-0.7,0-1.1-0.4-1.3-1.1l-0.9-4.7
				c-2.9,2.5-5.7,4.4-8.3,5.5c-2.6,1.2-5.2,1.7-7.8,1.7h-1.2c-5.2,0-9.3-1.5-12.2-4.6s-4.4-7.5-4.4-13.4V68.2c0-1,0.5-1.5,1.5-1.5
				h13.6c1,0,1.5,0.5,1.5,1.5v34.1c0,2.8,0.5,4.9,1.5,6.3c1,1.4,2.7,2.1,5.2,2.1h0.4c1.5,0,3.1-0.3,4.7-0.9c1.6-0.6,3.2-1.4,4.8-2.5
				V68.1c0-1,0.5-1.5,1.5-1.5H729.2z"/>
			
				<linearGradient id="SVGID_5_" gradientUnits="userSpaceOnUse" x1="589.625" y1="91.0877" x2="1075.8287" y2="39.7494" gradientTransform="matrix(1 0 0 -1 0 168.11)">
				<stop  offset="0" style="stop-color:#F08649"/>
				<stop  offset="0.4976" style="stop-color:#E83A80"/>
				<stop  offset="1" style="stop-color:#CF165D"/>
			</linearGradient>
			<path class="st5" d="M762.3,65.1c5.6,0.1,11.2,1.3,15.3,4.6c2,1.6,3.5,3.8,4.7,6.5c1.2,2.8,1.8,6.2,1.8,10.4v34.7
				c0,1-0.5,1.5-1.5,1.5h-12c-0.7,0-1.1-0.4-1.3-1.1l-0.9-4.8c-0.8,0.8-1.8,1.7-3,2.5c-1.2,0.9-2.4,1.7-3.7,2.4s-2.8,1.3-4.4,1.8
				c-1.6,0.4-3.2,0.7-4.9,0.7h-0.6c-2.7,0-5-0.4-7-1.3c-2-0.9-3.6-2.1-4.9-3.5c-1.3-1.5-2.3-3.1-3-5s-1-3.9-1-6v-1.4
				c0-5.6,1.9-9.9,5.6-12.9c3.7-3,9.8-4.8,18.1-5.4l7.9-0.6v-1.1c0-3.5-0.7-5.9-2.2-7.1s-3.7-1.8-6.9-1.8h-0.2
				c-2.4,0-4.9,0.4-7.7,1.1c-2.7,0.7-5.6,1.5-8.7,2.3c-1,0.3-1.5,0-1.5-1v-9.9c0-1.1,0.4-1.8,1.2-2c2.5-0.8,5.6-1.6,9.1-2.3
				C754.3,65.6,758.3,65.1,762.3,65.1z M761.9,98.3c-3.3,0.1-5.6,0.7-7.1,1.9s-2.2,2.8-2.2,4.9v0.3c0,1.9,0.6,3.4,1.7,4.5
				c1.2,1.1,2.7,1.7,4.6,1.7h0.6c2.5,0,5.2-1.2,7.9-3.7v-9.7L761.9,98.3z"/>
			
				<linearGradient id="SVGID_6_" gradientUnits="userSpaceOnUse" x1="590.8587" y1="102.7721" x2="1077.0625" y2="51.4338" gradientTransform="matrix(1 0 0 -1 0 168.11)">
				<stop  offset="0" style="stop-color:#F08649"/>
				<stop  offset="0.4976" style="stop-color:#E83A80"/>
				<stop  offset="1" style="stop-color:#CF165D"/>
			</linearGradient>
			<path class="st6" d="M804.8,51.5c1,0,1.5,0.5,1.5,1.5v68.4c0,1-0.5,1.5-1.5,1.5h-13.6c-1,0-1.5-0.5-1.5-1.5V53
				c0-1,0.5-1.5,1.5-1.5H804.8z"/>
			
				<linearGradient id="SVGID_7_" gradientUnits="userSpaceOnUse" x1="590.5307" y1="99.6659" x2="1076.7346" y2="48.3276" gradientTransform="matrix(1 0 0 -1 0 168.11)">
				<stop  offset="0" style="stop-color:#F08649"/>
				<stop  offset="0.4976" style="stop-color:#E83A80"/>
				<stop  offset="1" style="stop-color:#CF165D"/>
			</linearGradient>
			<path class="st7" d="M839.1,65c1.3,0,2.7,0.1,4.2,0.3s2.9,0.5,4.2,0.9s2.6,0.8,3.8,1.2c1.2,0.4,2.2,0.8,3,1.3
				c0.8,0.4,1.2,1,1.2,2V81c0,0.4-0.1,0.8-0.4,1c-0.3,0.2-0.6,0.2-1,0.1c-2.7-1.2-5-2.1-6.9-2.7s-3.8-1-5.6-1h-0.7
				c-3.4,0-6.3,1.1-8.6,3.4c-2.3,2.2-3.5,5.6-3.5,10.2v5.3c0,4.5,1.2,7.9,3.5,10.2c2.3,2.2,5.2,3.4,8.6,3.4h0.7c1.8,0,3.7-0.3,5.6-1
				c1.9-0.6,4.2-1.5,6.9-2.7c0.4-0.1,0.7-0.1,1,0.1c0.3,0.2,0.4,0.5,0.4,0.9v10.3c0,1-0.4,1.6-1.2,2s-1.8,0.9-3,1.3
				c-1.2,0.4-2.5,0.8-3.8,1.2s-2.7,0.7-4.2,0.9s-2.9,0.3-4.2,0.3h-1.2c-3.5,0-6.8-0.5-9.9-1.6c-3.1-1.1-5.9-2.7-8.3-4.9
				c-2.4-2.2-4.3-4.9-5.7-8.2s-2.1-7.2-2.1-11.6V92c0-4.5,0.7-8.3,2.1-11.6c1.4-3.3,3.3-6,5.7-8.2s5.1-3.8,8.3-4.9
				c3.1-1.1,6.4-1.6,9.9-1.6L839.1,65z"/>
			
				<linearGradient id="SVGID_8_" gradientUnits="userSpaceOnUse" x1="590.9928" y1="104.042" x2="1077.1967" y2="52.7037" gradientTransform="matrix(1 0 0 -1 0 168.11)">
				<stop  offset="0" style="stop-color:#F08649"/>
				<stop  offset="0.4976" style="stop-color:#E83A80"/>
				<stop  offset="1" style="stop-color:#CF165D"/>
			</linearGradient>
			<path class="st8" d="M887.3,65.2c5.6,0.1,11.2,1.3,15.3,4.6c2,1.6,3.5,3.8,4.7,6.5c1.2,2.8,1.8,6.2,1.8,10.4v34.7
				c0,1-0.5,1.5-1.5,1.5h-12c-0.7,0-1.1-0.4-1.3-1.1l-0.9-4.8c-0.8,0.8-1.8,1.7-3,2.5c-1.2,0.9-2.4,1.7-3.7,2.4s-2.8,1.3-4.4,1.8
				c-1.6,0.4-3.2,0.7-4.9,0.7h-0.6c-2.7,0-5-0.4-7-1.3c-2-0.9-3.6-2.1-4.9-3.5c-1.3-1.5-2.3-3.1-3-5s-1-3.9-1-6v-1.5
				c0-5.6,1.9-9.9,5.6-12.9c3.7-3,9.8-4.8,18.1-5.4l7.9-0.6v-1.1c0-3.5-0.7-5.9-2.2-7.1s-3.7-1.8-6.9-1.8h-0.2
				c-2.4,0-4.9,0.4-7.7,1.1c-2.7,0.7-5.6,1.5-8.7,2.3c-1,0.3-1.5,0-1.5-1v-9.9c0-1.1,0.4-1.8,1.2-2c2.5-0.8,5.6-1.6,9.1-2.3
				C879.3,65.6,883.3,65.1,887.3,65.2z M886.9,98.3c-3.3,0.1-5.6,0.7-7.1,1.9s-2.2,2.8-2.2,4.9v0.3c0,1.9,0.6,3.4,1.7,4.5
				c1.2,1.1,2.7,1.7,4.6,1.7h0.6c2.5,0,5.2-1.2,7.9-3.7v-9.7L886.9,98.3z"/>
			
				<linearGradient id="SVGID_9_" gradientUnits="userSpaceOnUse" x1="591.6142" y1="109.9276" x2="1077.8181" y2="58.5893" gradientTransform="matrix(1 0 0 -1 0 168.11)">
				<stop  offset="0" style="stop-color:#F08649"/>
				<stop  offset="0.4976" style="stop-color:#E83A80"/>
				<stop  offset="1" style="stop-color:#CF165D"/>
			</linearGradient>
			<path class="st9" d="M947.6,65.5c5.2,0,9.4,1.5,12.6,4.6c3.2,3.1,4.8,7.5,4.8,13.4v37.8c0,1-0.5,1.5-1.5,1.5H950
				c-1,0-1.5-0.5-1.5-1.5V87.1c0-2.8-0.6-4.9-1.8-6.3s-3.1-2.1-5.8-2.1h-0.4c-1.5,0-3.1,0.3-4.7,0.9c-1.6,0.6-3.2,1.4-4.8,2.5v39.2
				c0,1-0.5,1.5-1.5,1.5h-13.6c-1,0-1.5-0.5-1.5-1.5v-53c0-1,0.5-1.5,1.5-1.5h12c0.7,0,1.1,0.4,1.3,1.1l0.9,4.7
				c2.9-2.5,5.7-4.4,8.3-5.5c2.6-1.2,5.2-1.7,7.8-1.7h1.4V65.5z"/>
			
				<linearGradient id="SVGID_10_" gradientUnits="userSpaceOnUse" x1="592.2833" y1="116.2635" x2="1078.4871" y2="64.9252" gradientTransform="matrix(1 0 0 -1 0 168.11)">
				<stop  offset="0" style="stop-color:#F08649"/>
				<stop  offset="0.4976" style="stop-color:#E83A80"/>
				<stop  offset="1" style="stop-color:#CF165D"/>
			</linearGradient>
			<path class="st10" d="M998,65c2.8,0,5.7,0.4,8.4,1.2c1.3,0.4,2.6,0.8,3.8,1.2c1.2,0.4,2.2,0.8,3,1.3c0.8,0.4,1.2,1,1.2,2V81
				c0,0.4-0.1,0.8-0.4,1s-0.6,0.2-1,0.1c-2.7-1.2-5-2.1-6.9-2.7s-3.8-1-5.6-1h-0.7c-3.4,0-6.3,1.1-8.6,3.4
				c-2.3,2.2-3.5,5.6-3.5,10.2v5.3c0,4.5,1.2,7.9,3.5,10.2c2.3,2.2,5.2,3.4,8.6,3.4h0.7c1.8,0,3.7-0.3,5.6-1
				c1.9-0.6,4.2-1.5,6.9-2.7c0.4-0.1,0.7-0.1,1,0.1c0.3,0.2,0.4,0.5,0.4,0.9v10.3c0,1-0.4,1.6-1.2,2c-0.8,0.4-1.8,0.9-3,1.3
				c-1.2,0.4-2.5,0.8-3.8,1.2s-2.7,0.7-4.2,0.9s-2.9,0.3-4.2,0.3h-1.2c-3.5,0-6.8-0.5-9.9-1.6c-3.1-1.1-5.9-2.7-8.3-4.9
				c-2.4-2.2-4.3-4.9-5.7-8.2s-2.1-7.2-2.1-11.6V92c0-4.5,0.7-8.3,2.1-11.6c1.4-3.3,3.3-6,5.7-8.2s5.1-3.8,8.3-4.9
				C990.4,65.6,994.2,65,998,65z"/>
			
				<linearGradient id="SVGID_11_" gradientUnits="userSpaceOnUse" x1="592.8117" y1="121.2682" x2="1079.0155" y2="69.9299" gradientTransform="matrix(1 0 0 -1 0 168.11)">
				<stop  offset="0" style="stop-color:#F08649"/>
				<stop  offset="0.4976" style="stop-color:#E83A80"/>
				<stop  offset="1" style="stop-color:#CF165D"/>
			</linearGradient>
			<path class="st11" d="M1046.1,65.2c3.3,0,6.4,0.5,9.2,1.5c2.9,1,5.4,2.5,7.5,4.6c2.1,2,3.8,4.6,5,7.7s1.8,6.6,1.8,10.7v5.9
				c0,0.7-0.2,1.2-0.7,1.7c-0.4,0.4-1,0.7-1.7,0.7h-30.7v1.8c0,3.9,1.2,6.7,3.5,8.6c2.3,1.8,5.2,2.7,8.7,2.7h0.6
				c2.4,0,4.9-0.4,7.6-1.2s5.6-1.7,8.6-2.9c0.4-0.1,0.7-0.1,1,0.1c0.3,0.2,0.4,0.5,0.4,1v10.3c0,1-0.4,1.6-1.2,2
				c-0.9,0.4-2.1,0.9-3.5,1.3c-1.5,0.4-3.1,0.8-4.8,1.2c-1.8,0.4-3.6,0.7-5.4,0.9c-1.9,0.2-3.6,0.3-5.3,0.3h-1.1
				c-3.7,0-7.1-0.5-10.2-1.6c-3.2-1.1-5.9-2.7-8.3-4.9c-2.3-2.2-4.2-4.9-5.6-8.1c-1.4-3.2-2.1-7.1-2.1-11.5v-6c0-4.2,0.7-8,2-11.3
				s3.2-6.1,5.5-8.4s5-4,8.1-5.2s6.3-1.8,9.8-1.8L1046.1,65.2L1046.1,65.2z M1045.1,77.4c-2.6,0-4.7,1-6.3,2.9
				c-1.6,1.9-2.4,4.6-2.6,8.2h17.8c0.2-7.5-2.6-11.2-8.5-11.2L1045.1,77.4z"/>
		</g>
		<path class="st12" d="M1090.5,104.7c1,0,1.5,0.5,1.5,1.5v14c0,1-0.5,1.5-1.5,1.5h-14.1c-1,0-1.5-0.5-1.5-1.5v-14
			c0-1,0.5-1.5,1.5-1.5H1090.5z"/>
		<path class="st12" d="M1124.8,63.7c2.8,0,5.7,0.4,8.5,1.2c1.4,0.4,2.6,0.8,3.8,1.2c1.2,0.4,2.2,0.8,3.1,1.3c0.8,0.4,1.2,1.1,1.2,2
			v10.4c0,0.5-0.2,0.8-0.5,1s-0.6,0.2-1,0.1c-2.7-1.2-5-2.1-7-2.8c-2-0.6-3.8-1-5.6-1h-0.7c-3.5,0-6.4,1.1-8.7,3.4
			c-2.3,2.3-3.5,5.7-3.5,10.3v5.3c0,4.6,1.2,8,3.5,10.3s5.2,3.4,8.7,3.4h0.7c1.8,0,3.7-0.3,5.6-1c2-0.6,4.3-1.6,7-2.8
			c0.4-0.2,0.7-0.1,1,0.1c0.3,0.2,0.5,0.5,0.5,1v10.4c0,1-0.4,1.7-1.2,2c-0.8,0.5-1.8,0.9-3.1,1.3c-1.2,0.4-2.5,0.8-3.8,1.2
			c-1.4,0.4-2.8,0.7-4.2,0.9c-1.5,0.2-2.9,0.3-4.2,0.3h-1.2c-3.5,0-6.9-0.5-10-1.6c-3.2-1.1-5.9-2.7-8.4-5c-2.4-2.2-4.3-5-5.8-8.3
			c-1.4-3.3-2.1-7.2-2.1-11.7v-6c0-4.5,0.7-8.4,2.1-11.7c1.4-3.3,3.3-6.1,5.8-8.3c2.4-2.2,5.2-3.9,8.4-5
			C1117.2,64.2,1121,63.6,1124.8,63.7z"/>
		<path class="st12" d="M1174,63.9c3.5,0,6.9,0.6,10,1.7c3.2,1.1,5.9,2.8,8.4,4.9c2.4,2.1,4.3,4.8,5.8,8c1.4,3.2,2.1,6.8,2.1,11v8.4
			c0,4.1-0.7,7.8-2.1,11s-3.3,5.8-5.8,8c-2.4,2.1-5.2,3.8-8.4,4.9c-3.2,1.1-6.5,1.7-10,1.7h-1.2c-3.5,0-6.9-0.6-10-1.7
			c-3.2-1.1-5.9-2.8-8.4-4.9c-2.4-2.1-4.3-4.8-5.8-8c-1.4-3.2-2.1-6.8-2.1-11v-8.4c0-4.1,0.7-7.8,2.1-11s3.3-5.8,5.8-8
			c2.4-2.1,5.2-3.8,8.4-4.9c3.2-1.1,6.5-1.7,10-1.7C1172.8,63.9,1174,63.9,1174,63.9z M1173,77.3c-2.9,0-5.2,0.9-6.9,2.8
			c-1.7,1.9-2.6,4.7-2.6,8.5v9.8c0,3.8,0.9,6.6,2.6,8.5s4,2.8,6.9,2.8h0.7c2.9,0,5.2-0.9,6.9-2.8c1.7-1.9,2.6-4.7,2.6-8.5v-9.8
			c0-3.8-0.9-6.6-2.6-8.5s-4-2.8-6.9-2.8H1173z"/>
		<path class="st12" d="M1273,63.9c5.2,0,9.3,1.6,12.4,4.7c3,3.1,4.6,7.6,4.6,13.5v38.2c0,1-0.5,1.5-1.5,1.5h-13.8
			c-1,0-1.5-0.5-1.5-1.5V85.9c0-2.9-0.5-5-1.5-6.4s-2.8-2.1-5.4-2.1h-0.4c-1.5,0-3.1,0.3-4.7,1c-1.7,0.6-3.3,1.5-5.1,2.7
			c0.2,0.7,0.2,1.5,0.2,2.5s0,1.8,0,2.4v34.5c0,1-0.5,1.5-1.5,1.5H1241c-1,0-1.5-0.5-1.5-1.5V86.1c0-2.9-0.5-5-1.5-6.4
			s-2.8-2.1-5.4-2.1h-0.4c-1.5,0-3.1,0.3-4.7,0.9c-1.7,0.6-3.3,1.4-4.9,2.5v39.6c0,1-0.5,1.5-1.5,1.5h-13.8c-1,0-1.5-0.5-1.5-1.5
			V67.1c0-1,0.5-1.5,1.5-1.5h12.1c0.7,0,1.1,0.4,1.4,1.1l0.9,4.7c2.9-2.6,5.7-4.4,8.4-5.6c2.6-1.2,5.3-1.8,7.9-1.8h1.2
			c7.1,0,12,2.8,14.8,8.4c3.3-3,6.4-5.2,9.1-6.5s5.6-2,8.5-2L1273,63.9L1273,63.9z"/>
		<path class="st12" d="M209.4,65c3.3,0,6.3,0.5,9.2,1.5s5.3,2.5,7.5,4.6c2.1,2,3.8,4.6,5,7.6c1.2,3,1.8,6.6,1.8,10.7v5.9
			c0,0.7-0.2,1.2-0.7,1.7c-0.4,0.4-1,0.7-1.7,0.7h-30.6v1.8c0,3.9,1.1,6.7,3.5,8.5c2.3,1.8,5.2,2.7,8.7,2.7h0.6
			c2.4,0,4.9-0.4,7.6-1.2c2.7-0.8,5.5-1.7,8.6-2.8c0.4-0.1,0.7-0.1,1,0.1c0.3,0.2,0.4,0.5,0.4,0.9v10.2c0,1-0.4,1.6-1.2,2
			c-0.9,0.4-2.1,0.9-3.5,1.3c-1.4,0.4-3,0.8-4.8,1.2c-1.7,0.4-3.5,0.7-5.4,0.9s-3.6,0.3-5.2,0.3h-1.1c-3.6,0-7-0.5-10.2-1.6
			s-5.9-2.7-8.2-4.8c-2.3-2.2-4.2-4.8-5.6-8.1c-1.4-3.2-2.1-7-2.1-11.4v-6c0-4.2,0.7-8,2-11.3s3.2-6.1,5.5-8.3c2.3-2.3,5-4,8.1-5.2
			c3-1.2,6.3-1.8,9.8-1.8L209.4,65L209.4,65z M208.4,77.2c-2.6,0-4.7,0.9-6.2,2.8c-1.6,1.9-2.4,4.6-2.6,8.2h17.7
			c0.2-7.4-2.6-11.1-8.5-11.1L208.4,77.2z"/>
		<path class="st12" d="M271.4,65c5.2,0,9.4,1.5,12.6,4.6s4.8,7.5,4.8,13.3v37.6c0,1-0.5,1.4-1.4,1.4h-13.6c-1,0-1.4-0.5-1.4-1.4
			V86.6c0-2.8-0.6-4.9-1.8-6.3c-1.2-1.4-3.1-2.1-5.8-2.1h-0.4c-1.5,0-3,0.3-4.7,0.9c-1.6,0.6-3.2,1.4-4.8,2.4v39.1
			c0,1-0.5,1.4-1.4,1.4h-13.6c-1,0-1.4-0.5-1.4-1.4V67.8c0-1,0.5-1.4,1.4-1.4h11.9c0.7,0,1.1,0.4,1.3,1.1l0.9,4.7
			c2.9-2.5,5.6-4.4,8.2-5.5s5.2-1.7,7.8-1.7C270,65,271.4,65,271.4,65z"/>
		<path class="st12" d="M316,51.8c0.6-0.1,1.1-0.1,1.4,0.2c0.4,0.3,0.6,0.7,0.6,1.3v13.5h12.4c1,0,1.4,0.5,1.4,1.4V78
			c0,1-0.5,1.4-1.4,1.4H318v25.4c0,2,0.4,3.5,1.2,4.3c0.8,0.9,2,1.3,3.5,1.3h0.6c0.6,0,1.4-0.1,2.4-0.4c1-0.3,2.6-0.7,4.6-1.3
			c0.4-0.1,0.7-0.1,1,0.2s0.4,0.6,0.4,0.9v9.3c0,0.7-0.3,1.3-1,1.6c-1.9,0.9-3.9,1.6-5.9,2.1s-3.9,0.8-5.6,0.8h-1.1
			c-5.3,0-9.5-1.4-12.4-4.2s-4.4-6.7-4.4-11.6V79.3h-5.9c-1,0-1.4-0.5-1.4-1.4v-8.3c0-0.4,0.1-0.8,0.4-1s0.7-0.4,1.1-0.6l5.9-1.6
			v-9.8c0-1.3,0.6-2.1,1.8-2.3L316,51.8z"/>
		<path class="st12" d="M369,65c0.9,0,1.7,0.1,2.4,0.2c0.7,0.1,1,0.6,1,1.3v12.6c0,1.2-0.6,1.7-1.8,1.6c-0.4-0.1-1.1-0.1-2-0.2
			c-0.9,0-1.7-0.1-2.3-0.1h-0.8c-1.9,0-3.9,0.3-6,0.9c-2.2,0.6-4.1,1.6-5.8,2.8v36.5c0,1-0.5,1.4-1.4,1.4h-13.6
			c-1,0-1.4-0.5-1.4-1.4V67.8c0-1,0.5-1.4,1.4-1.4h11.9c0.7,0,1.1,0.4,1.3,1.1l1.2,6.1c2.1-2.8,4.5-5,7.2-6.5s5.4-2.2,8-2.2h0.7V65z
			"/>
		<path class="st12" d="M399.4,65.1c2.8,0.1,5.6,0.4,8.3,1.1c2.6,0.6,4.9,1.7,6.9,3.3c2,1.6,3.5,3.8,4.7,6.5
			c1.1,2.7,1.8,6.2,1.8,10.3v34.5c0,1-0.5,1.4-1.4,1.4h-11.9c-0.7,0-1.1-0.4-1.3-1.1l-0.9-4.8c-0.8,0.8-1.8,1.7-2.9,2.5
			c-1.2,0.9-2.4,1.7-3.7,2.4c-1.3,0.7-2.8,1.3-4.3,1.8c-1.6,0.4-3.2,0.7-4.9,0.7h-0.6c-2.7,0-5-0.4-7-1.3c-2-0.9-3.6-2.1-4.9-3.5
			s-2.3-3.1-2.9-5c-0.7-1.9-1-3.9-1-6v-1.2c0-5.6,1.9-9.8,5.6-12.8s9.7-4.7,18-5.3l7.9-0.6v-1.2c0-3.5-0.7-5.8-2.2-7.1
			c-1.4-1.2-3.7-1.8-6.8-1.8h-0.2c-2.4,0-4.9,0.4-7.6,1.1s-5.6,1.5-8.6,2.3c-1,0.3-1.4,0-1.4-1v-9.9c0-1.1,0.4-1.8,1.2-2
			c2.5-0.8,5.5-1.6,9.1-2.3C391.8,65.4,395.6,65,399.4,65.1z M399.1,98c-3.3,0.1-5.6,0.7-7.1,1.9c-1.4,1.2-2.2,2.8-2.2,4.9v0.3
			c0,1.9,0.6,3.3,1.7,4.5c1.1,1.1,2.7,1.7,4.6,1.7h0.6c2.5,0,5.2-1.2,7.9-3.7v-9.7L399.1,98z"/>
		<path class="st12" d="M476.8,40.1c1,0,1.4,0.5,1.4,1.4v79.1c0,1-0.5,1.4-1.4,1.4h-11.9c-0.7,0-1.1-0.4-1.3-1.1l-0.7-4
			c-1.7,1.9-3.8,3.5-6.4,4.7s-5.4,1.8-8.5,1.8h-1.1c-3.4,0-6.4-0.6-8.9-1.9c-2.5-1.3-4.6-3-6.3-5.1c-1.7-2.2-2.9-4.7-3.8-7.6
			c-0.9-2.9-1.3-6-1.3-9.3V90c0-4.1,0.6-7.7,1.7-10.8c1.1-3.1,2.7-5.7,4.6-7.8c2-2.1,4.3-3.7,7-4.8c2.7-1.1,5.6-1.7,8.7-1.7h1.1
			c2.2,0,4.4,0.4,6.4,1.1s3.9,1.8,5.6,3.3V41.5c0-1,0.5-1.4,1.4-1.4H476.8z M452.2,78.3c-5.6,0-8.5,3.7-8.5,11.1v9.7
			c0,7.4,2.8,11.1,8.5,11.1h0.4c1.4,0,2.9-0.3,4.5-0.8c1.6-0.6,3.1-1.4,4.7-2.6V82c-1.6-1.3-3.3-2.2-4.9-2.8
			c-1.6-0.6-3.1-0.9-4.3-0.9C452.6,78.3,452.2,78.3,452.2,78.3z"/>
		<path class="st12" d="M509.6,65c5.6,0.1,11.2,1.3,15.2,4.5c2,1.6,3.5,3.8,4.7,6.5c1.1,2.7,1.8,6.2,1.8,10.3v34.5
			c0,1-0.5,1.4-1.4,1.4H518c-0.7,0-1.1-0.4-1.3-1.1l-0.9-4.8c-0.8,0.8-1.8,1.7-2.9,2.5c-1.2,0.9-2.4,1.7-3.7,2.4s-2.8,1.3-4.3,1.8
			c-1.6,0.4-3.2,0.7-4.9,0.7h-0.6c-2.7,0-5-0.4-7-1.3c-2-0.9-3.6-2.1-4.9-3.5c-1.3-1.4-2.3-3.1-2.9-5c-0.7-1.9-1-3.9-1-6v-1.2
			c0-5.6,1.9-9.8,5.6-12.8s9.7-4.7,18-5.3l7.9-0.6v-1.2c0-3.5-0.7-5.8-2.2-7.1c-1.4-1.2-3.7-1.8-6.8-1.8h-0.2
			c-2.4,0-4.9,0.4-7.6,1.1c-2.7,0.7-5.6,1.5-8.6,2.3c-1,0.3-1.4,0-1.4-1v-9.9c0-1.1,0.4-1.8,1.2-2c2.5-0.8,5.5-1.6,9.1-2.3
			C501.7,65.4,505.7,65,509.6,65z M509.3,98c-3.3,0.1-5.6,0.7-7.1,1.9c-1.4,1.2-2.2,2.8-2.2,4.9v0.3c0,1.9,0.6,3.3,1.7,4.5
			c1.1,1.1,2.7,1.7,4.6,1.7h0.6c2.5,0,5.2-1.2,7.9-3.7v-9.7L509.3,98z"/>
		<path class="st12" d="M557.8,65.1c1.4,0,2.9,0.1,4.4,0.2s2.9,0.4,4.3,0.6c1.3,0.3,2.6,0.5,3.7,0.8c1.1,0.3,2,0.6,2.7,0.9
			c0.8,0.4,1.2,1,1.2,2v9.7c0,0.4-0.1,0.8-0.4,0.9c-0.3,0.2-0.6,0.2-1,0.1c-2.7-1.2-5.1-2.1-7.1-2.7s-4-0.9-6.1-0.9h-0.2
			c-2,0-3.7,0.4-5,1.1s-1.9,1.9-1.9,3.3v0.3c0,1.6,0.6,2.6,1.7,3.2c1.1,0.6,2.5,1.1,4,1.6l3.8,1.2c2.4,0.8,4.5,1.7,6.5,2.6
			c2,0.9,3.6,2.1,5,3.5s2.4,3,3.2,4.9s1.2,4.2,1.2,7v0.8c0,2.8-0.6,5.3-1.8,7.5s-2.8,4-4.9,5.5c-2.1,1.5-4.5,2.6-7.2,3.3
			s-5.6,1.1-8.6,1.1h-0.8c-1.3,0-2.7-0.1-4.3-0.2c-1.6-0.1-3.2-0.4-4.7-0.6c-1.6-0.3-3-0.6-4.3-0.9c-1.3-0.3-2.4-0.7-3.1-1.1
			c-0.8-0.4-1.2-1-1.2-2v-9.7c0-0.4,0.1-0.8,0.4-0.9c0.3-0.2,0.6-0.2,1-0.1c2.9,1.2,5.5,2.1,7.8,2.8s4.7,1.1,7,1.1h0.7
			c5,0,7.5-1.6,7.5-4.8v-0.3c0-1.6-0.5-2.6-1.6-3.2c-1.1-0.6-2.4-1.1-4.1-1.7l-3.8-1.2c-1.9-0.7-3.8-1.4-5.7-2.2s-3.6-1.9-5.1-3.2
			s-2.8-3-3.7-5c-1-2-1.4-4.4-1.4-7.2v-0.6c0-3,0.6-5.6,1.8-7.8c1.2-2.2,2.8-4.1,4.8-5.5s4.2-2.5,6.7-3.2s5-1.1,7.6-1.1L557.8,65.1z
			"/>
	</g>
</g>
</svg>
